<svg width="147" height="48" viewBox="0 0 147 48" fill="none" xmlns="http://www.w3.org/2000/svg">
<path d="M41.28 0H6.72C3.00865 0 0 3.00865 0 6.72V41.28C0 44.9914 3.00865 48 6.72 48H41.28C44.9914 48 48 44.9914 48 41.28V6.72C48 3.00865 44.9914 0 41.28 0Z" fill="#F9F6FE"/>
<path fill-rule="evenodd" clip-rule="evenodd" d="M33.6341 24.185L34.0115 8.08984C30.8117 8.27442 28.6249 13.2189 26.9903 18.9973C25.9705 18.5279 24.8354 18.2661 23.6391 18.2661C19.2076 18.2661 15.6152 21.8585 15.6152 26.2899C15.6152 30.6562 19.1028 34.2079 23.4442 34.3114L23.4435 34.314C23.485 34.314 23.5264 34.3138 23.5676 34.3134C23.5914 34.3136 23.6152 34.3137 23.6391 34.3137C23.8754 34.3137 24.1094 34.3035 24.3406 34.2835C31.4643 33.79 33.5132 27.429 33.6341 24.185ZM24.1691 28.8187C26.1685 28.8187 27.7893 27.1979 27.7893 25.1985C27.7893 23.1991 26.1685 21.5783 24.1691 21.5783C22.1698 21.5783 20.5489 23.1991 20.5489 25.1985C20.5489 27.1979 22.1698 28.8187 24.1691 28.8187Z" fill="#B84CB2"/>
<path fill-rule="evenodd" clip-rule="evenodd" d="M14.1211 42.1479L14.4985 26.0527C14.6058 23.1747 16.2305 17.8432 21.5703 16.3324C22.3668 16.0676 23.2187 15.9242 24.104 15.9242C24.1685 15.9242 24.2329 15.9249 24.297 15.9264C24.3624 15.9249 24.4279 15.9241 24.4936 15.9241C24.5173 15.9241 24.541 15.9242 24.5647 15.9244C24.606 15.924 24.6474 15.9238 24.689 15.9238L24.6883 15.9264C29.0298 16.0298 32.5174 19.5815 32.5174 23.9479C32.5174 28.3793 28.925 31.9717 24.4936 31.9717C24.4291 31.9717 24.3648 31.9709 24.3007 31.9694C24.2353 31.971 24.1698 31.9718 24.104 31.9718C23.0417 31.9718 22.0276 31.7653 21.0996 31.3903C19.4697 37.1041 17.2932 41.965 14.1211 42.1479ZM24.4176 28.8198C26.4169 28.8198 28.0377 27.199 28.0377 25.1996C28.0377 23.2002 26.4169 21.5794 24.4176 21.5794C22.4182 21.5794 20.7974 23.2002 20.7974 25.1996C20.7974 27.199 22.4182 28.8198 24.4176 28.8198Z" fill="url(#paint0_linear_509_1102)" fill-opacity="0.8"/>
<path fill-rule="evenodd" clip-rule="evenodd" d="M33.705 6.89062L33.3285 22.6497C33.203 25.9555 30.9945 32.5671 23.1641 32.5672C23.4454 31.5086 23.7358 30.2266 24.0457 28.8069C24.1542 28.8167 24.2641 28.8217 24.3751 28.8217C26.3745 28.8217 27.9953 27.2009 27.9953 25.2015C27.9953 23.6327 26.9975 22.2971 25.6019 21.7945C27.3295 14.5476 29.7359 7.11537 33.705 6.89062Z" fill="url(#paint1_linear_509_1102)" fill-opacity="0.85"/>
<path fill-rule="evenodd" clip-rule="evenodd" d="M24.3085 31.7576C28.3762 31.7576 31.6736 28.4601 31.6736 24.3925C31.6736 20.3248 28.3762 17.0273 24.3085 17.0273C20.2409 17.0273 16.9434 20.3248 16.9434 24.3925C16.9434 28.4601 20.2409 31.7576 24.3085 31.7576ZM24.6412 28.8231C26.6405 28.8231 28.2613 27.2023 28.2613 25.203C28.2613 23.2036 26.6405 21.5828 24.6412 21.5828C22.6418 21.5828 21.021 23.2036 21.021 25.203C21.021 27.2023 22.6418 28.8231 24.6412 28.8231Z" fill="#C04EA8" fill-opacity="0.5"/>
<path fill-rule="evenodd" clip-rule="evenodd" d="M15.082 42.8368L15.4344 27.0776C15.5518 23.7718 17.6188 17.1602 24.9472 17.1602C24.6423 18.3863 24.3259 19.9122 23.983 21.6046C22.1808 21.8121 20.7814 23.3431 20.7814 25.2008C20.7814 26.5347 21.5029 27.7002 22.5769 28.3282C20.9664 35.4475 18.7291 42.6161 15.082 42.8368Z" fill="url(#paint2_linear_509_1102)" fill-opacity="0.8"/>
<path fill-rule="evenodd" clip-rule="evenodd" d="M24.313 28.1521C26.3124 28.1521 27.9332 26.5314 27.9332 24.5321C27.9332 24.1927 27.8865 23.8642 27.7992 23.5527C28.053 24.0475 28.1962 24.6083 28.1962 25.2026C28.1962 27.2019 26.5754 28.8226 24.576 28.8226C22.916 28.8226 21.517 27.7054 21.0898 26.1819C21.6898 27.3517 22.908 28.1521 24.313 28.1521Z" fill="url(#paint3_linear_509_1102)"/>
<path fill-rule="evenodd" clip-rule="evenodd" d="M33.7997 22.894L34.1771 6.79883C31.005 6.98182 28.8285 11.8426 27.1986 17.5563C26.3277 17.2043 25.3809 17.0008 24.3896 16.9771L24.3902 16.9747C24.3514 16.9747 24.3128 16.9748 24.2744 16.9752C24.2476 16.9749 24.2208 16.9748 24.194 16.9748C24.1285 16.9748 24.0631 16.9755 23.998 16.9771C23.9337 16.9756 23.8691 16.9748 23.8045 16.9748C22.9612 16.9748 22.1483 17.1049 21.3848 17.3461C15.9254 18.7953 14.1997 24.1355 14.1997 27.1036L13.8223 43.1988C16.9943 43.0158 19.1708 38.1551 20.8007 32.4415C21.6716 32.7934 22.6185 32.9968 23.6098 33.0204L23.6092 33.0229C23.6507 33.0229 23.692 33.0228 23.7332 33.0224C23.7569 33.0226 23.7807 33.0227 23.8045 33.0227C23.8719 33.0227 23.939 33.0219 24.006 33.0202C24.0685 33.0216 24.1312 33.0224 24.194 33.0224C25.0775 33.0224 25.9276 32.8796 26.7226 32.6158C32.0666 31.107 33.6924 25.773 33.7997 22.894ZM24.2787 28.821C26.2781 28.821 27.8989 27.2002 27.8989 25.2008C27.8989 23.2015 26.2781 21.5807 24.2787 21.5807C22.2793 21.5807 20.6585 23.2015 20.6585 25.2008C20.6585 27.2002 22.2793 28.821 24.2787 28.821Z" fill="url(#paint4_linear_509_1102)"/>
<path d="M68.7884 11.5318C68.7884 12.381 68.5881 13.1822 68.1875 13.9353C67.7869 14.6884 67.146 15.3053 66.2647 15.786C65.3834 16.2506 64.2538 16.483 62.8758 16.483H59.8474V23.2608H57.1074V6.55653H62.8758C64.1577 6.55653 65.2392 6.78085 66.1205 7.2295C67.0178 7.66213 67.6828 8.25499 68.1154 9.00809C68.5641 9.76118 68.7884 10.6024 68.7884 11.5318ZM62.8758 14.2477C63.9173 14.2477 64.6944 14.0154 65.2072 13.5507C65.7199 13.07 65.9763 12.397 65.9763 11.5318C65.9763 9.7051 64.9428 8.79177 62.8758 8.79177H59.8474V14.2477H62.8758ZM74.3819 11.9404C74.7825 11.2674 75.3113 10.7466 75.9682 10.3781C76.6412 9.99352 77.4344 9.80124 78.3477 9.80124V12.6374H77.6507C76.5771 12.6374 75.7599 12.9098 75.1991 13.4546C74.6543 13.9994 74.3819 14.9447 74.3819 16.2907V23.2608H71.642V10.0176H74.3819V11.9404ZM82.5007 8.26301C82.004 8.26301 81.5874 8.09476 81.2509 7.75827C80.9144 7.42178 80.7461 7.00518 80.7461 6.50846C80.7461 6.01173 80.9144 5.59513 81.2509 5.25864C81.5874 4.92215 82.004 4.75391 82.5007 4.75391C82.9814 4.75391 83.39 4.92215 83.7265 5.25864C84.0629 5.59513 84.2312 6.01173 84.2312 6.50846C84.2312 7.00518 84.0629 7.42178 83.7265 7.75827C83.39 8.09476 82.9814 8.26301 82.5007 8.26301ZM83.8466 10.0176V23.2608H81.1067V10.0176H83.8466ZM92.4913 23.4771C91.4498 23.4771 90.5124 23.2929 89.6792 22.9243C88.862 22.5398 88.2131 22.027 87.7324 21.3861C87.2517 20.7291 86.9953 20.0001 86.9633 19.1989H89.7994C89.8475 19.7597 90.1119 20.2324 90.5926 20.617C91.0893 20.9855 91.7062 21.1698 92.4433 21.1698C93.2124 21.1698 93.8052 21.0256 94.2218 20.7372C94.6545 20.4327 94.8708 20.0482 94.8708 19.5835C94.8708 19.0868 94.6304 18.7182 94.1497 18.4779C93.6851 18.2375 92.94 17.9731 91.9145 17.6847C90.921 17.4123 90.1119 17.1479 89.487 16.8916C88.862 16.6352 88.3173 16.2426 87.8526 15.7139C87.4039 15.1851 87.1796 14.4881 87.1796 13.6228C87.1796 12.9178 87.3879 12.2769 87.8045 11.7C88.2211 11.1072 88.814 10.6425 89.5831 10.306C90.3682 9.96949 91.2655 9.80124 92.275 9.80124C93.7812 9.80124 94.991 10.1858 95.9043 10.9549C96.8336 11.708 97.3304 12.7415 97.3944 14.0554H94.6545C94.6064 13.4626 94.366 12.9899 93.9334 12.6374C93.5008 12.2849 92.9159 12.1086 92.1789 12.1086C91.4578 12.1086 90.905 12.2448 90.5205 12.5172C90.1359 12.7896 89.9436 13.1501 89.9436 13.5988C89.9436 13.9513 90.0718 14.2477 90.3282 14.4881C90.5846 14.7284 90.897 14.9207 91.2655 15.0649C91.6341 15.1931 92.1789 15.3613 92.8999 15.5696C93.8613 15.826 94.6465 16.0904 95.2553 16.3628C95.8802 16.6192 96.417 17.0037 96.8657 17.5165C97.3143 18.0292 97.5467 18.7102 97.5627 19.5594C97.5627 20.3125 97.3544 20.9855 96.9378 21.5784C96.5212 22.1712 95.9283 22.6359 95.1592 22.9724C94.4061 23.3089 93.5168 23.4771 92.4913 23.4771ZM103.96 12.2528V19.5835C103.96 20.0802 104.072 20.4407 104.297 20.665C104.537 20.8733 104.938 20.9775 105.498 20.9775H107.181V23.2608H105.018C103.784 23.2608 102.839 22.9724 102.182 22.3956C101.525 21.8187 101.196 20.8814 101.196 19.5835V12.2528H99.634V10.0176H101.196V6.72477H103.96V10.0176H107.181V12.2528H103.96ZM111.341 8.26301C110.844 8.26301 110.427 8.09476 110.091 7.75827C109.754 7.42178 109.586 7.00518 109.586 6.50846C109.586 6.01173 109.754 5.59513 110.091 5.25864C110.427 4.92215 110.844 4.75391 111.341 4.75391C111.821 4.75391 112.23 4.92215 112.566 5.25864C112.903 5.59513 113.071 6.01173 113.071 6.50846C113.071 7.00518 112.903 7.42178 112.566 7.75827C112.23 8.09476 111.821 8.26301 111.341 8.26301ZM112.687 10.0176V23.2608H109.947V10.0176H112.687ZM123.206 9.80124C124.247 9.80124 125.177 10.0176 125.994 10.4502C126.827 10.8828 127.476 11.5238 127.941 12.373C128.406 13.2222 128.638 14.2477 128.638 15.4495V23.2608H125.922V15.8581C125.922 14.6723 125.625 13.767 125.033 13.1421C124.44 12.5012 123.631 12.1807 122.605 12.1807C121.58 12.1807 120.762 12.5012 120.154 13.1421C119.561 13.767 119.264 14.6723 119.264 15.8581V23.2608H116.524V10.0176H119.264V11.5318C119.713 10.987 120.282 10.5624 120.971 10.2579C121.676 9.95346 122.421 9.80124 123.206 9.80124ZM144.511 16.3147C144.511 16.8114 144.479 17.2601 144.415 17.6607H134.296C134.376 18.7182 134.769 19.5675 135.474 20.2084C136.179 20.8493 137.044 21.1698 138.07 21.1698C139.544 21.1698 140.585 20.5529 141.194 19.3191H144.15C143.75 20.5369 143.021 21.5383 141.963 22.3235C140.922 23.0926 139.624 23.4771 138.07 23.4771C136.804 23.4771 135.666 23.1967 134.657 22.6359C133.663 22.0591 132.878 21.2579 132.301 20.2324C131.74 19.1909 131.46 17.9892 131.46 16.6272C131.46 15.2652 131.732 14.0715 132.277 13.046C132.838 12.0045 133.615 11.2033 134.608 10.6425C135.618 10.0817 136.772 9.80124 138.07 9.80124C139.319 9.80124 140.433 10.0737 141.41 10.6184C142.388 11.1632 143.149 11.9324 143.694 12.9258C144.238 13.9032 144.511 15.0329 144.511 16.3147ZM141.651 15.4495C141.635 14.44 141.274 13.6308 140.569 13.0219C139.864 12.4131 138.991 12.1086 137.949 12.1086C137.004 12.1086 136.195 12.4131 135.522 13.0219C134.849 13.6148 134.448 14.424 134.32 15.4495H141.651Z" fill="white"/>
<path d="M62.5633 27.1978C64.3419 27.1978 65.8962 27.5423 67.2261 28.2313C68.5721 28.9043 69.6056 29.8817 70.3266 31.1635C71.0637 32.4294 71.4322 33.9115 71.4322 35.61C71.4322 37.3085 71.0637 38.7826 70.3266 40.0324C69.6056 41.2822 68.5721 42.2436 67.2261 42.9166C65.8962 43.5736 64.3419 43.902 62.5633 43.902H57.1074V27.1978H62.5633ZM62.5633 41.6668C64.5182 41.6668 66.0164 41.138 67.0579 40.0805C68.0994 39.023 68.6201 37.5328 68.6201 35.61C68.6201 33.6712 68.0994 32.157 67.0579 31.0674C66.0164 29.9778 64.5182 29.433 62.5633 29.433H59.8474V41.6668H62.5633ZM73.4748 37.2203C73.4748 35.8904 73.7472 34.7127 74.292 33.6872C74.8528 32.6617 75.6059 31.8686 76.5513 31.3077C77.5127 30.7309 78.5702 30.4425 79.7239 30.4425C80.7654 30.4425 81.6707 30.6508 82.4398 31.0674C83.225 31.468 83.8499 31.9727 84.3146 32.5816V30.6588H87.0786V43.902H84.3146V41.9312C83.8499 42.5561 83.217 43.0768 82.4158 43.4935C81.6146 43.9101 80.7013 44.1184 79.6758 44.1184C78.5382 44.1184 77.4967 43.8299 76.5513 43.2531C75.6059 42.6602 74.8528 41.8431 74.292 40.8015C73.7472 39.744 73.4748 38.5503 73.4748 37.2203ZM84.3146 37.2684C84.3146 36.3551 84.1223 35.5619 83.7377 34.8889C83.3692 34.216 82.8805 33.7032 82.2716 33.3507C81.6627 32.9982 81.0058 32.8219 80.3007 32.8219C79.5957 32.8219 78.9388 32.9982 78.3299 33.3507C77.721 33.6872 77.2243 34.1919 76.8397 34.8649C76.4712 35.5219 76.2869 36.307 76.2869 37.2203C76.2869 38.1337 76.4712 38.9348 76.8397 39.6238C77.2243 40.3128 77.721 40.8416 78.3299 41.2101C78.9548 41.5626 79.6117 41.7389 80.3007 41.7389C81.0058 41.7389 81.6627 41.5626 82.2716 41.2101C82.8805 40.8576 83.3692 40.3449 83.7377 39.6719C84.1223 38.9829 84.3146 38.1817 84.3146 37.2684ZM94.1144 32.894V40.2247C94.1144 40.7214 94.2266 41.0819 94.4509 41.3063C94.6913 41.5146 95.0919 41.6187 95.6527 41.6187H97.3351V43.902H95.172C93.9382 43.902 92.9928 43.6136 92.3358 43.0368C91.6789 42.4599 91.3504 41.5226 91.3504 40.2247V32.894H89.7881V30.6588H91.3504V27.366H94.1144V30.6588H97.3351V32.894H94.1144ZM99.1875 37.2203C99.1875 35.8904 99.4599 34.7127 100.005 33.6872C100.565 32.6617 101.318 31.8686 102.264 31.3077C103.225 30.7309 104.283 30.4425 105.436 30.4425C106.478 30.4425 107.383 30.6508 108.152 31.0674C108.938 31.468 109.562 31.9727 110.027 32.5816V30.6588H112.791V43.902H110.027V41.9312C109.562 42.5561 108.93 43.0768 108.128 43.4935C107.327 43.9101 106.414 44.1184 105.388 44.1184C104.251 44.1184 103.209 43.8299 102.264 43.2531C101.318 42.6602 100.565 41.8431 100.005 40.8015C99.4599 39.744 99.1875 38.5503 99.1875 37.2203ZM110.027 37.2684C110.027 36.3551 109.835 35.5619 109.45 34.8889C109.082 34.216 108.593 33.7032 107.984 33.3507C107.375 32.9982 106.718 32.8219 106.013 32.8219C105.308 32.8219 104.651 32.9982 104.042 33.3507C103.434 33.6872 102.937 34.1919 102.552 34.8649C102.184 35.5219 101.999 36.307 101.999 37.2203C101.999 38.1337 102.184 38.9348 102.552 39.6238C102.937 40.3128 103.434 40.8416 104.042 41.2101C104.667 41.5626 105.324 41.7389 106.013 41.7389C106.718 41.7389 107.375 41.5626 107.984 41.2101C108.593 40.8576 109.082 40.3449 109.45 39.6719C109.835 38.9829 110.027 38.1817 110.027 37.2684ZM133.321 39.9122H125.677L124.211 43.902H122.433L128.562 27.3179H130.46L136.565 43.902H134.787L133.321 39.9122ZM132.816 38.5182L129.499 29.433L126.182 38.5182H132.816ZM141.188 27.1016V43.902H139.506V27.1016H141.188Z" fill="white"/>
<defs>
<linearGradient id="paint0_linear_509_1102" x1="23.3193" y1="11.9501" x2="23.3193" y2="36.7985" gradientUnits="userSpaceOnUse">
<stop offset="0.05" stop-color="white"/>
<stop offset="0.25" stop-color="#C04EA8"/>
</linearGradient>
<linearGradient id="paint1_linear_509_1102" x1="30.1794" y1="3.39219" x2="30.3456" y2="14.3621" gradientUnits="userSpaceOnUse">
<stop stop-color="white"/>
<stop offset="1" stop-color="#EA8450"/>
</linearGradient>
<linearGradient id="paint2_linear_509_1102" x1="19.984" y1="31.6473" x2="19.6901" y2="47.0977" gradientUnits="userSpaceOnUse">
<stop offset="0.0822018" stop-color="#C452A1"/>
<stop offset="0.281222" stop-color="#934EDA"/>
</linearGradient>
<linearGradient id="paint3_linear_509_1102" x1="26.8125" y1="24.6011" x2="24.5772" y2="28.8232" gradientUnits="userSpaceOnUse">
<stop offset="0.435" stop-color="#9A4ED2"/>
<stop offset="1" stop-color="#EF8A46" stop-opacity="0.5"/>
</linearGradient>
<linearGradient id="paint4_linear_509_1102" x1="32.7548" y1="10.4787" x2="12.541" y2="43.244" gradientUnits="userSpaceOnUse">
<stop stop-color="#EF8A46"/>
<stop offset="0.587073" stop-color="#C250A6"/>
<stop offset="1" stop-color="#8F4EDF"/>
</linearGradient>
</defs>
</svg>
